<svg width="100%" style="max-width:600px" viewBox="0 0 732 541" fill="none" xmlns="http://www.w3.org/2000/svg"><g id="main"><path id="body_fill" d="M306.001 47.0001C495 64 560 169 588 322C641 273 708 302 730 339C718 354 698 359 668 359C692 366.5 717 387 717 407C692 428 611 422 579.5 366.5C513 435 419 475 287 475C223.541 475 154.11 461.634 101 431.415C21.3562 484.771 -19.3147 470.741 45.0347 385C28.5203 364.344 17.4453 339.791 14.0002 311C-3.46988 165 158 33.6879 306.001 47.0001Z" fill="#ffffff"></path><path id="body_stroke" d="M45.0347 385C28.5203 364.344 17.4453 339.791 14.0002 311C-3.46988 165 158 33.6879 306.001 47.0001C495 64 560 169 588 322C641 273 708 302 730 339C718 354 698 359 668 359C692 366.5 717 387 717 407C692 428 611 422 579.5 366.5C513 435 419 475 287 475C223.541 475 154.11 461.634 101 431.415M45.0347 385C59.8428 403.522 79.0243 418.911 101 431.415M45.0347 385C-19.3147 470.741 21.3562 484.771 101 431.415" stroke="#1E1E1E" stroke-width="4" stroke-linejoin="round"></path><path id="fin_left" d="M369.5 538.5C354.3 542.1 281.5 502.5 254 443.5L369.5 429.5C388 463 384.7 534.9 369.5 538.5Z" fill="#ffffff" stroke="#1E1E1E" stroke-width="4" stroke-linejoin="round"></path></g><circle id="eye_right" cx="133.5" cy="269.5" r="17.5" fill="#000000"></circle><circle id="eye_left" cx="236.5" cy="272.5" r="17.5" fill="#000000"></circle><g id="cheek_right" filter="url(#filter0_f_0_1)"><circle cx="76" cy="303" r="25" fill="#FBBABA"></circle></g><g id="cheek_left" filter="url(#filter1_f_0_1)"><circle cx="288" cy="312" r="25" fill="#FBBABA"></circle></g><path id="mouse" d="M179.102 312.347C146.242 308.824 110.683 332.737 117.956 355.101C125.23 377.464 214.281 385.851 226.096 365.164C237.912 344.478 211.963 315.871 179.102 312.347Z" fill="#DCDCDC"></path><g id="nose"><path id="nose_fill" d="M170.632 341.758C160.799 340.986 153.125 332.094 155.988 326.717C159.214 320.655 187.89 322.188 189.243 329.929C190.337 336.188 179.763 342.475 170.632 341.758Z" fill="#1E1E1E"></path><path id="nose_stroke" d="M170.632 341.758C160.799 340.986 153.125 332.094 155.988 326.717C159.214 320.655 187.89 322.188 189.243 329.929C190.337 336.188 179.763 342.475 170.632 341.758ZM170.632 341.758C165.753 360.133 138.27 360.692 134.685 346.714M170.632 341.758C172.923 360.692 194.431 365.164 204.588 353.983" stroke="#1E1E1E" stroke-width="4"></path></g><g id="beard"><path id="beard_right1" d="M64.5 305C44.5 305 13.5 305 1.5 318.5" stroke="#1E1E1E" stroke-width="4"></path><path id="beard_right2" d="M63.5 315C43.5 315 16 322 3 337" stroke="#1E1E1E" stroke-width="4"></path><path id="beard_left1" d="M297 326C317 326 349 342.5 357 360" stroke="#1E1E1E" stroke-width="4"></path><path id="beard_left2" d="M295 315C315 315 349.5 321 360.5 337" stroke="#1E1E1E" stroke-width="4"></path></g><g id="hat_santa"><path id="hat_santa_main" d="M326.5 56.6023C330 32.1023 184.837 -34.8977 123.998 145.602C122.57 149.84 277.236 150.546 276.998 145.602C272 41.6023 325.929 60.6023 326.5 56.6023Z" fill="#C00000" stroke="black" stroke-width="4"></path><circle id="hat_santa_tip" cx="331" cy="53.1024" r="13" fill="white" stroke="black" stroke-width="4"></circle><rect id="hat_santa_brim" x="118" y="140.102" width="164" height="17" rx="8.5" fill="white" stroke="black" stroke-width="4"></rect></g><defs><filter id="filter0_f_0_1" x="41" y="268" width="70" height="70" filterUnits="userSpaceOnUse" color-interpolation-filters="sRGB"><feFlood flood-opacity="0" result="BackgroundImageFix"></feFlood><feBlend mode="normal" in="SourceGraphic" in2="BackgroundImageFix" result="shape"></feBlend><feGaussianBlur stdDeviation="5" result="effect1_foregroundBlur_0_1"></feGaussianBlur></filter><filter id="filter1_f_0_1" x="253" y="277" width="70" height="70" filterUnits="userSpaceOnUse" color-interpolation-filters="sRGB"><feFlood flood-opacity="0" result="BackgroundImageFix"></feFlood><feBlend mode="normal" in="SourceGraphic" in2="BackgroundImageFix" result="shape"></feBlend><feGaussianBlur stdDeviation="5" result="effect1_foregroundBlur_0_1"></feGaussianBlur></filter></defs></svg>